Input #0, lavfi, from 'testsrc2=size=1920x1080:rate=30':
  Duration: N/A, start: 0.000000, bitrate: N/A
    Stream #0:0: Video: rawvideo (I420 / 0x30323449), yuv420p, 1920x1080 [SAR 1:1 DAR 16:9], 30 tbr, 30 tbn, 30 tbc
Stream mapping:
  Stream #0:0 -> #0:0 (rawvideo (native) -> h264 (libx264))
Press [q] to stop, [?] for help
[libx264 @ 0x24bc740] using SAR=1/1
[libx264 @ 0x24bc740] using cpu capabilities: MMX2 SSE2Fast SSSE3 SSE4.2 AVX FMA3 AVX2 LZCNT BMI2
[libx264 @ 0x24bc740] profile High, level 4.0
[libx264 @ 0x24bc740] 264 - core 148 r2643 5c65704 - H.264/MPEG-4 AVC codec - Copyleft 2003-2015 - http://www.videolan.org/x264.html - options: cabac=1 ref=3 deblock=1:0:0 analyse=0x3:0x113 me=hex subme=2 psy=1 psy_rd=1.00:0.00 mixed_ref=0 me_range=16 chroma_me=1 trellis=0 8x8dct=1 cqm=0 deadzone=21,11 fast_pskip=1 chroma_qp_offset=0 threads=24 lookahead_threads=8 sliced_threads=0 nr=0 decimate=1 interlaced=0 bluray_compat=0 constrained_intra=0 bframes=0 weightp=1 keyint=150 keyint_min=76 scenecut=0 intra_refresh=0 rc_lookahead=10 rc=abr mbtree=1 bitrate=4000 ratetol=1.0 qcomp=0.60 qpmin=0 qpmax=69 qpstep=4 ip_ratio=1.40 aq=1:1.00
[dash @ 0x24bb080] Opening 'http://encoder:8080/ldash/upload/1234/init-stream1-0.m4s' for writing
Output #0, dash, to 'http://encoder:8080/ldash/upload/1234/manifest.mpd':
  Metadata:
    encoder         : Lavf58.19.100
    Stream #0:0: Video: h264 (libx264), yuv420p, 1920x1080 [SAR 1:1 DAR 16:9], q=-1--1, 4000 kb/s, 30 fps, 15360 tbn, 30 tbc
    Metadata:
      encoder         : Lavc58.33.100 libx264
    Side data:
      cpb: bitrate max/min/avg: 0/0/4000000 buffer size: 0 vbv_delay: -1
frame=   15 fps=0.0 q=0.0 size=N/A time=00:00:00.00 bitrate=N/A speed=   0x    frame=   30 fps= 30 q=0.0 size=N/A time=00:00:00.00 bitrate=N/A speed=   0x    [dash @ 0x24bb080] Opening 'http://encoder:8080/ldash/upload/1234/chunk-stream-0-00001.m4s' for writing
frame=   45 fps= 30 q=33.0 size=N/A time=00:00:00.30 bitrate=N/A speed=0.199x    frame=   60 fps= 30 q=33.0 size=N/A time=00:00:00.80 bitrate=N/A speed=0.396x    frame=   75 fps= 30 q=32.0 size=N/A time=00:00:01.30 bitrate=N/A speed=0.516x    frame=   90 fps= 30 q=31.0 size=N/A time=00:00:01.80 bitrate=N/A speed=0.595x    frame=  105 fps= 30 q=31.0 size=N/A time=00:00:02.30 bitrate=N/A speed=0.652x    frame=  120 fps= 30 q=31.0 size=N/A time=00:00:02.80 bitrate=N/A speed=0.695x    frame=  136 fps= 30 q=31.0 size=N/A time=00:00:03.33 bitrate=N/A speed=0.735x    frame=  151 fps= 30 q=32.0 size=N/A time=00:00:03.83 bitrate=N/A speed=0.761x    frame=  166 fps= 30 q=32.0 size=N/A time=00:00:04.33 bitrate=N/A speed=0.782x    frame=  181 fps= 30 q=31.0 size=N/A time=00:00:04.83 bitrate=N/A speed= 0.8x    [dash @ 0x24bb080] Cannot use rename on non file protocol, this may lead to races and temporary partial files
[http @ 0x2c98300] Opening 'http://encoder:8080/ldash/upload/1234/chunk-stream-0-00002.m4s' for writing
frame=  196 fps= 30 q=32.0 size=N/A time=00:00:05.33 bitrate=N/A speed=0.814x    frame=  211 fps= 30 q=32.0 size=N/A time=00:00:05.83 bitrate=N/A speed=0.827x    frame=  226 fps= 30 q=32.0 size=N/A time=00:00:06.33 bitrate=N/A speed=0.837x    frame=  242 fps= 30 q=32.0 size=N/A time=00:00:06.86 bitrate=N/A speed=0.851x    frame=  257 fps= 30 q=32.0 size=N/A time=00:00:07.36 bitrate=N/A speed=0.859x    frame=  272 fps= 30 q=32.0 size=N/A time=00:00:07.86 bitrate=N/A speed=0.866x    frame=  287 fps= 30 q=31.0 size=N/A time=00:00:08.36 bitrate=N/A speed=0.873x    frame=  302 fps= 30 q=31.0 size=N/A time=00:00:08.86 bitrate=N/A speed=0.879x    frame=  318 fps= 30 q=31.0 size=N/A time=00:00:09.40 bitrate=N/A speed=0.887x    frame=  333 fps= 30 q=31.0 size=N/A time=00:00:09.90 bitrate=N/A speed=0.891x    [http @ 0x364cf80] Opening 'http://encoder:8080/ldash/upload/1234/manifest.mpd' for writing
[http @ 0x2c98300] Opening 'http://encoder:8080/ldash/upload/1234/chunk-stream-0-00003.m4s' for writing
frame=  348 fps= 30 q=31.0 size=N/A time=00:00:10.40 bitrate=N/A speed=0.896x    frame=  363 fps= 30 q=31.0 size=N/A time=00:00:10.90 bitrate=N/A speed= 0.9x    frame=  378 fps= 30 q=31.0 size=N/A time=00:00:11.40 bitrate=N/A speed=0.904x    frame=  393 fps= 30 q=31.0 size=N/A time=00:00:11.90 bitrate=N/A speed=0.907x    frame=  408 fps= 30 q=31.0 size=N/A time=00:00:12.40 bitrate=N/A speed=0.91x    [dash @ 0x24bb080] Opening 'http://encoder:8080/ldash/upload/1234/chunk-stream-0-00001.m4s' for writing
[dash @ 0x24bb080] Opening 'http://encoder:8080/ldash/upload/1234/chunk-stream-0-00002.m4s' for writing
[dash @ 0x24bb080] Opening 'http://encoder:8080/ldash/upload/1234/chunk-stream-0-00003.m4s' for writing
[http @ 0x364cf80] Opening 'http://encoder:8080/ldash/upload/1234/manifest.mpd' for writing
[dash @ 0x24bb080] Opening 'http://encoder:8080/ldash/upload/1234/init-stream1-0.m4s' for writing
[mp4 @ 0x2c96b80] Starting second pass: inserting sidx atoms
Non-consecutive fragments, writing incorrect sidx
    Last message repeated 3 times
[mp4 @ 0x2c96b80] Unable to re-open  output file for the second pass (faststart)
frame=  412 fps= 30 q=-1.0 Lsize=N/A time=00:00:13.70 bitrate=N/A speed=0.994x    
video:6727kB audio:0kB subtitle:0kB other streams:0kB global headers:0kB muxing overhead: unknown
[libx264 @ 0x24bc740] frame I:3     Avg QP:12.39  size: 46700
[libx264 @ 0x24bc740] frame P:409   Avg QP:22.38  size: 16499
[libx264 @ 0x24bc740] mb I  I16..4: 87.5%  2.0% 10.5%
[libx264 @ 0x24bc740] mb P  I16..4:  1.5%  0.1%  0.0%  P16..4:  6.4%  2.0%  0.8%  0.0%  0.0%    skip:89.1%
[libx264 @ 0x24bc740] final ratefactor: 25.24
[libx264 @ 0x24bc740] 8x8 transform intra:4.9% inter:8.7%
[libx264 @ 0x24bc740] coded y,uvDC,uvAC intra: 7.4% 20.3% 17.0% inter: 3.4% 6.4% 5.7%
[libx264 @ 0x24bc740] i16 v,h,dc,p: 89%  8%  2%  0%
[libx264 @ 0x24bc740] i8 v,h,dc,ddl,ddr,vr,hd,vl,hu:  7% 18% 62%  5%  1%  0%  2%  1%  4%
[libx264 @ 0x24bc740] i4 v,h,dc,ddl,ddr,vr,hd,vl,hu: 36% 25% 25%  3%  2%  2%  3%  2%  3%
[libx264 @ 0x24bc740] i8c dc,h,v,p: 67% 12% 19%  1%
[libx264 @ 0x24bc740] Weighted P-Frames: Y:0.0% UV:0.0%
[libx264 @ 0x24bc740] ref P L0: 47.9% 21.8% 30.3%
[libx264 @ 0x24bc740] kb/s:4012.50
Exiting normally, received signal 15.
